<svg id="visual" viewBox="0 0 900 600" width="900" height="600" xmlns="http://www.w3.org/2000/svg" xmlns:xlink="http://www.w3.org/1999/xlink" version="1.1"><rect x="0" y="0" width="900" height="600" fill="#002233"></rect><path d="M0 443L21.5 429.2C43 415.3 86 387.7 128.8 407.8C171.7 428 214.3 496 257.2 489.5C300 483 343 402 385.8 357C428.7 312 471.3 303 514.2 300.7C557 298.3 600 302.7 642.8 324.3C685.7 346 728.3 385 771.2 405.3C814 425.7 857 427.3 878.5 428.2L900 429L900 601L878.5 601C857 601 814 601 771.2 601C728.3 601 685.7 601 642.8 601C600 601 557 601 514.2 601C471.3 601 428.7 601 385.8 601C343 601 300 601 257.2 601C214.3 601 171.7 601 128.8 601C86 601 43 601 21.5 601L0 601Z" fill="#0066FF" stroke-linecap="round" stroke-linejoin="miter"></path></svg>