{
  "accessors": [
    {
      "bufferView": 2,
      "componentType": 5126,
      "count": 9965,
      "max": [
        41.2611083984375,
        40.152244567871094,
        38.10972595214844
      ],
      "min": [
        -42.85452651977539,
        -42.29424285888672,
        0.2557410001754761
      ],
      "type": "VEC3"
    },
    {
      "bufferView": 2,
      "byteOffset": 119580,
      "componentType": 5126,
      "count": 9965,
      "max": [
        1.0,
        1.0,
        1.0
      ],
      "min": [
        -1.0,
        -1.0,
        -1.0
      ],
      "type": "VEC3"
    },
    {
      "bufferView": 1,
      "componentType": 5126,
      "count": 9965,
      "max": [
        1.0,
        1.0
      ],
      "min": [
        0.0,
        0.0
      ],
      "type": "VEC2"
    },
    {
      "bufferView": 0,
      "componentType": 5125,
      "count": 23553,
      "type": "SCALAR"
    },
    {
      "bufferView": 2,
      "byteOffset": 239160,
      "componentType": 5126,
      "count": 8668,
      "max": [
        41.97480773925781,
        38.785400390625,
        37.41700744628906
      ],
      "min": [
        -39.820701599121094,
        -40.92740249633789,
        0.25574299693107605
      ],
      "type": "VEC3"
    },
    {
      "bufferView": 2,
      "byteOffset": 343176,
      "componentType": 5126,
      "count": 8668,
      "max": [
        1.0,
        1.0,
        1.0
      ],
      "min": [
        -1.0,
        -1.0,
        -1.0
      ],
      "type": "VEC3"
    },
    {
      "bufferView": 1,
      "byteOffset": 79720,
      "componentType": 5126,
      "count": 8668,
      "max": [
        1.0,
        1.0
      ],
      "min": [
        0.0,
        0.0
      ],
      "type": "VEC2"
    },
    {
      "bufferView": 0,
      "byteOffset": 94212,
      "componentType": 5125,
      "count": 21360,
      "type": "SCALAR"
    }
  ],
  "asset": {
    "extras": {
      "author": "ibukilego (https://sketchfab.com/ibukilego)",
      "license": "CC-BY-4.0 (http://creativecommons.org/licenses/by/4.0/)",
      "source": "https://sketchfab.com/3d-models/building-jkl-agu-sagamihara-campus-lod2-3-3323cdbed47d4daf892e0b74719313c2",
      "title": "Building J/K/L, AGU Sagamihara Campus (LOD2-3)"
    },
    "generator": "Sketchfab-14.70.0",
    "version": "2.0"
  },
  "bufferViews": [
    {
      "buffer": 0,
      "byteLength": 179652,
      "name": "floatBufferViews",
      "target": 34963
    },
    {
      "buffer": 0,
      "byteLength": 149064,
      "byteOffset": 179652,
      "byteStride": 8,
      "name": "floatBufferViews",
      "target": 34962
    },
    {
      "buffer": 0,
      "byteLength": 447192,
      "byteOffset": 328716,
      "byteStride": 12,
      "name": "floatBufferViews",
      "target": 34962
    }
  ],
  "buffers": [
    {
      "byteLength": 775908,
      "uri": "scene.bin"
    }
  ],
  "materials": [
    {
      "doubleSided": true,
      "name": "None",
      "pbrMetallicRoughness": {
        "metallicFactor": 0.0,
        "roughnessFactor": 0.6
      }
    }
  ],
  "meshes": [
    {
      "name": "Object_0",
      "primitives": [
        {
          "attributes": {
            "NORMAL": 1,
            "POSITION": 0,
            "TEXCOORD_0": 2
          },
          "indices": 3,
          "material": 0,
          "mode": 4
        }
      ]
    },
    {
      "name": "Object_1",
      "primitives": [
        {
          "attributes": {
            "NORMAL": 5,
            "POSITION": 4,
            "TEXCOORD_0": 6
          },
          "indices": 7,
          "material": 0,
          "mode": 4
        }
      ]
    }
  ],
  "nodes": [
    {
      "children": [
        1
      ],
      "matrix": [
        1.0,
        0.0,
        0.0,
        0.0,
        0.0,
        2.220446049250313e-16,
        -1.0,
        0.0,
        0.0,
        1.0,
        2.220446049250313e-16,
        0.0,
        0.0,
        0.0,
        0.0,
        1.0
      ],
      "name": "Sketchfab_model"
    },
    {
      "children": [
        2,
        3
      ],
      "name": "sc_jkl.obj.cleaner.materialmerger.gles"
    },
    {
      "mesh": 0,
      "name": "Object_2"
    },
    {
      "mesh": 1,
      "name": "Object_3"
    }
  ],
  "scene": 0,
  "scenes": [
    {
      "name": "Sketchfab_Scene",
      "nodes": [
        0
      ]
    }
  ]
}
