{
  "accessors": [
    {
      "bufferView": 2,
      "componentType": 5126,
      "count": 6242,
      "max": [
        71.02671813964844,
        62.64350891113281,
        1.327370047569275
      ],
      "min": [
        -68.7930679321289,
        -62.345733642578125,
        1.3273160457611084
      ],
      "type": "VEC3"
    },
    {
      "bufferView": 2,
      "byteOffset": 74904,
      "componentType": 5126,
      "count": 6242,
      "max": [
        0.13210169970989227,
        0.08980430662631989,
        -0.8372973799705505
      ],
      "min": [
        -0.5241984128952026,
        -0.24540923535823822,
        -1.0
      ],
      "type": "VEC3"
    },
    {
      "bufferView": 1,
      "componentType": 5126,
      "count": 6242,
      "max": [
        0.8399879932403564,
        0.7141259908676147
      ],
      "min": [
        0.6570910215377808,
        0.5354480147361755
      ],
      "type": "VEC2"
    },
    {
      "bufferView": 0,
      "componentType": 5125,
      "count": 8913,
      "type": "SCALAR"
    },
    {
      "bufferView": 2,
      "byteOffset": 149808,
      "componentType": 5126,
      "count": 4525,
      "max": [
        71.02671813964844,
        62.64350891113281,
        5.430800914764404
      ],
      "min": [
        -68.7930679321289,
        -62.345733642578125,
        1.3273160457611084
      ],
      "type": "VEC3"
    },
    {
      "bufferView": 2,
      "byteOffset": 204108,
      "componentType": 5126,
      "count": 4525,
      "max": [
        0.9999406337738037,
        0.9999819993972778,
        0.9898141622543335
      ],
      "min": [
        -0.9999865293502808,
        -0.9999958276748657,
        -0.7047935128211975
      ],
      "type": "VEC3"
    },
    {
      "bufferView": 1,
      "byteOffset": 49936,
      "componentType": 5126,
      "count": 4525,
      "max": [
        0.962315022945404,
        0.9959250092506409
      ],
      "min": [
        0.029099000617861748,
        0.006138999946415424
      ],
      "type": "VEC2"
    },
    {
      "bufferView": 0,
      "byteOffset": 35652,
      "componentType": 5125,
      "count": 13371,
      "type": "SCALAR"
    },
    {
      "bufferView": 2,
      "byteOffset": 258408,
      "componentType": 5126,
      "count": 65532,
      "max": [
        51.63432693481445,
        50.008060455322266,
        29.690582275390625
      ],
      "min": [
        -3.744378089904785,
        -20.96257972717285,
        3.486694097518921
      ],
      "type": "VEC3"
    },
    {
      "bufferView": 2,
      "byteOffset": 1044792,
      "componentType": 5126,
      "count": 65532,
      "max": [
        0.9999933242797852,
        0.9999924898147583,
        1.0
      ],
      "min": [
        -0.9998760223388672,
        -0.9999749660491943,
        -0.9999969005584717
      ],
      "type": "VEC3"
    },
    {
      "bufferView": 1,
      "byteOffset": 86136,
      "componentType": 5126,
      "count": 65532,
      "max": [
        0.9994900226593018,
        0.9999780058860779
      ],
      "min": [
        0.0005600000149570405,
        0.0005799999926239252
      ],
      "type": "VEC2"
    },
    {
      "bufferView": 0,
      "byteOffset": 89136,
      "componentType": 5125,
      "count": 345918,
      "type": "SCALAR"
    },
    {
      "bufferView": 2,
      "byteOffset": 1831176,
      "componentType": 5126,
      "count": 65532,
      "max": [
        17.268203735351563,
        62.48839569091797,
        36.51393127441406
      ],
      "min": [
        -34.74928283691406,
        -5.527270793914795,
        2.3361051082611084
      ],
      "type": "VEC3"
    },
    {
      "bufferView": 2,
      "byteOffset": 2617560,
      "componentType": 5126,
      "count": 65532,
      "max": [
        0.9999653100967407,
        1.0,
        0.9999997615814209
      ],
      "min": [
        -0.9999803304672241,
        -0.9999555349349976,
        -0.999923586845398
      ],
      "type": "VEC3"
    },
    {
      "bufferView": 1,
      "byteOffset": 610392,
      "componentType": 5126,
      "count": 65532,
      "max": [
        0.9994140267372131,
        0.999767005443573
      ],
      "min": [
        0.00023799999326001853,
        0.000661000027321279
      ],
      "type": "VEC2"
    },
    {
      "bufferView": 0,
      "byteOffset": 1472808,
      "componentType": 5125,
      "count": 342669,
      "type": "SCALAR"
    },
    {
      "bufferView": 2,
      "byteOffset": 3403944,
      "componentType": 5126,
      "count": 65532,
      "max": [
        71.00389099121094,
        55.066009521484375,
        31.137496948242188
      ],
      "min": [
        -39.635108947753906,
        -62.33336639404297,
        2.4034810066223145
      ],
      "type": "VEC3"
    },
    {
      "bufferView": 2,
      "byteOffset": 4190328,
      "componentType": 5126,
      "count": 65532,
      "max": [
        0.9999953508377075,
        0.9999107122421265,
        0.9999998807907104
      ],
      "min": [
        -0.9999922513961792,
        -0.9999960660934448,
        -0.9999998807907104
      ],
      "type": "VEC3"
    },
    {
      "bufferView": 1,
      "byteOffset": 1134648,
      "componentType": 5126,
      "count": 65532,
      "max": [
        0.9994249939918518,
        0.999360978603363
      ],
      "min": [
        0.0005430000019259751,
        0.0006680000224150717
      ],
      "type": "VEC2"
    },
    {
      "bufferView": 0,
      "byteOffset": 2843484,
      "componentType": 5125,
      "count": 349056,
      "type": "SCALAR"
    },
    {
      "bufferView": 2,
      "byteOffset": 4976712,
      "componentType": 5126,
      "count": 65532,
      "max": [
        50.330421447753906,
        2.398149013519287,
        33.564491271972656
      ],
      "min": [
        -9.755359649658203,
        -60.64252471923828,
        2.6529459953308105
      ],
      "type": "VEC3"
    },
    {
      "bufferView": 2,
      "byteOffset": 5763096,
      "componentType": 5126,
      "count": 65532,
      "max": [
        1.0,
        0.9999998807907104,
        0.9999991655349731
      ],
      "min": [
        -0.9999997615814209,
        -0.9999996423721313,
        -0.9999843835830688
      ],
      "type": "VEC3"
    },
    {
      "bufferView": 1,
      "byteOffset": 1658904,
      "componentType": 5126,
      "count": 65532,
      "max": [
        0.9994860291481018,
        0.9999269843101501
      ],
      "min": [
        0.0005389999714680016,
        0.000653000024612993
      ],
      "type": "VEC2"
    },
    {
      "bufferView": 0,
      "byteOffset": 4239708,
      "componentType": 5125,
      "count": 341283,
      "type": "SCALAR"
    },
    {
      "bufferView": 2,
      "byteOffset": 6549480,
      "componentType": 5126,
      "count": 65532,
      "max": [
        28.209739685058594,
        7.564663887023926,
        33.459327697753906
      ],
      "min": [
        -36.865692138671875,
        -59.36981964111328,
        3.609344005584717
      ],
      "type": "VEC3"
    },
    {
      "bufferView": 2,
      "byteOffset": 7335864,
      "componentType": 5126,
      "count": 65532,
      "max": [
        0.9999890327453613,
        1.0,
        0.9999997615814209
      ],
      "min": [
        -0.9999998807907104,
        -1.0,
        -0.9999700784683228
      ],
      "type": "VEC3"
    },
    {
      "bufferView": 1,
      "byteOffset": 2183160,
      "componentType": 5126,
      "count": 65532,
      "max": [
        0.9984840154647827,
        0.9997659921646118
      ],
      "min": [
        0.0005990000208839774,
        0.0005610000225715339
      ],
      "type": "VEC2"
    },
    {
      "bufferView": 0,
      "byteOffset": 5604840,
      "componentType": 5125,
      "count": 347211,
      "type": "SCALAR"
    },
    {
      "bufferView": 2,
      "byteOffset": 8122248,
      "componentType": 5126,
      "count": 65532,
      "max": [
        -7.0092692375183105,
        12.579374313354492,
        31.483169555664063
      ],
      "min": [
        -61.65034103393555,
        -48.779205322265625,
        2.1017000675201416
      ],
      "type": "VEC3"
    },
    {
      "bufferView": 2,
      "byteOffset": 8908632,
      "componentType": 5126,
      "count": 65532,
      "max": [
        0.9999399185180664,
        1.0,
        0.9999997615814209
      ],
      "min": [
        -0.9999924898147583,
        -0.9999998807907104,
        -0.9999728202819824
      ],
      "type": "VEC3"
    },
    {
      "bufferView": 1,
      "byteOffset": 2707416,
      "componentType": 5126,
      "count": 65532,
      "max": [
        0.9994770288467407,
        0.9998520016670227
      ],
      "min": [
        0.0005029999883845448,
        0.0005119999987073243
      ],
      "type": "VEC2"
    },
    {
      "bufferView": 0,
      "byteOffset": 6993684,
      "componentType": 5125,
      "count": 350232,
      "type": "SCALAR"
    },
    {
      "bufferView": 2,
      "byteOffset": 9695016,
      "componentType": 5126,
      "count": 65532,
      "max": [
        50.26013946533203,
        46.26750946044922,
        41.265296936035156
      ],
      "min": [
        -66.28876495361328,
        -44.535667419433594,
        2.1065289974212646
      ],
      "type": "VEC3"
    },
    {
      "bufferView": 2,
      "byteOffset": 10481400,
      "componentType": 5126,
      "count": 65532,
      "max": [
        0.9999933242797852,
        1.0,
        0.9999995231628418
      ],
      "min": [
        -1.0,
        -0.9999996423721313,
        -0.9999998807907104
      ],
      "type": "VEC3"
    },
    {
      "bufferView": 1,
      "byteOffset": 3231672,
      "componentType": 5126,
      "count": 65532,
      "max": [
        0.9994699954986572,
        0.9999840259552002
      ],
      "min": [
        0.00010099999781232327,
        0.000493000028654933
      ],
      "type": "VEC2"
    },
    {
      "bufferView": 0,
      "byteOffset": 8394612,
      "componentType": 5125,
      "count": 308871,
      "type": "SCALAR"
    },
    {
      "bufferView": 2,
      "byteOffset": 11267784,
      "componentType": 5126,
      "count": 65532,
      "max": [
        70.79849243164063,
        62.63886260986328,
        31.502548217773438
      ],
      "min": [
        -68.77468872070313,
        -52.18914794921875,
        2.112312078475952
      ],
      "type": "VEC3"
    },
    {
      "bufferView": 2,
      "byteOffset": 12054168,
      "componentType": 5126,
      "count": 65532,
      "max": [
        0.999984622001648,
        1.0,
        0.9999995231628418
      ],
      "min": [
        -0.9999982118606567,
        -0.9999995231628418,
        -0.9999969005584717
      ],
      "type": "VEC3"
    },
    {
      "bufferView": 1,
      "byteOffset": 3755928,
      "componentType": 5126,
      "count": 65532,
      "max": [
        0.9995080232620239,
        0.999983012676239
      ],
      "min": [
        0.00015900000289548188,
        7.599999662488699e-05
      ],
      "type": "VEC2"
    },
    {
      "bufferView": 0,
      "byteOffset": 9630096,
      "componentType": 5125,
      "count": 244530,
      "type": "SCALAR"
    },
    {
      "bufferView": 2,
      "byteOffset": 12840552,
      "componentType": 5126,
      "count": 55055,
      "max": [
        58.294273376464844,
        2.467339038848877,
        33.67792510986328
      ],
      "min": [
        -61.81610107421875,
        -62.031272888183594,
        2.1024630069732666
      ],
      "type": "VEC3"
    },
    {
      "bufferView": 2,
      "byteOffset": 13501212,
      "componentType": 5126,
      "count": 55055,
      "max": [
        0.9999991655349731,
        0.9999990463256836,
        0.9999972581863403
      ],
      "min": [
        -0.999998927116394,
        -0.9999995231628418,
        -0.9999614953994751
      ],
      "type": "VEC3"
    },
    {
      "bufferView": 1,
      "byteOffset": 4280184,
      "componentType": 5126,
      "count": 55055,
      "max": [
        0.9994829893112183,
        0.9999880194664001
      ],
      "min": [
        0.0002209999947808683,
        0.0004949999856762588
      ],
      "type": "VEC2"
    },
    {
      "bufferView": 0,
      "byteOffset": 10608216,
      "componentType": 5125,
      "count": 209367,
      "type": "SCALAR"
    }
  ],
  "asset": {
    "extras": {
      "author": "Lassi Kaukonen (https://sketchfab.com/thesidekick)",
      "license": "CC-BY-4.0 (http://creativecommons.org/licenses/by/4.0/)",
      "source": "https://sketchfab.com/3d-models/paimio-sanatorium-edadc72f28e84eceb7e0df6dc04fee9c",
      "title": "Paimio Sanatorium"
    },
    "generator": "Sketchfab-14.60.0",
    "version": "2.0"
  },
  "bufferViews": [
    {
      "buffer": 0,
      "byteLength": 11445684,
      "name": "floatBufferViews",
      "target": 34963
    },
    {
      "buffer": 0,
      "byteLength": 4720624,
      "byteOffset": 11445684,
      "byteStride": 8,
      "name": "floatBufferViews",
      "target": 34962
    },
    {
      "buffer": 0,
      "byteLength": 14161872,
      "byteOffset": 16166308,
      "byteStride": 12,
      "name": "floatBufferViews",
      "target": 34962
    }
  ],
  "buffers": [
    {
      "byteLength": 30328180,
      "uri": "scene.bin"
    }
  ],
  "extensionsUsed": [
    "KHR_materials_unlit"
  ],
  "images": [
    {
      "uri": "textures/Paimio_sanatorium_baseColor.jpeg"
    }
  ],
  "materials": [
    {
      "doubleSided": true,
      "extensions": {
        "KHR_materials_unlit": {}
      },
      "name": "Base",
      "pbrMetallicRoughness": {
        "baseColorFactor": [
          0.0736778947237429,
          0.0736778947237429,
          0.0736778947237429,
          1.0
        ],
        "metallicFactor": 0.0
      }
    },
    {
      "doubleSided": true,
      "extensions": {
        "KHR_materials_unlit": {}
      },
      "name": "Paimio_sanatorium",
      "pbrMetallicRoughness": {
        "baseColorTexture": {
          "index": 0
        },
        "metallicFactor": 0.0
      }
    }
  ],
  "meshes": [
    {
      "name": "Object_0",
      "primitives": [
        {
          "attributes": {
            "NORMAL": 1,
            "POSITION": 0,
            "TEXCOORD_0": 2
          },
          "indices": 3,
          "material": 0,
          "mode": 4
        }
      ]
    },
    {
      "name": "Object_1",
      "primitives": [
        {
          "attributes": {
            "NORMAL": 5,
            "POSITION": 4,
            "TEXCOORD_0": 6
          },
          "indices": 7,
          "material": 0,
          "mode": 4
        }
      ]
    },
    {
      "name": "Object_2",
      "primitives": [
        {
          "attributes": {
            "NORMAL": 9,
            "POSITION": 8,
            "TEXCOORD_0": 10
          },
          "indices": 11,
          "material": 1,
          "mode": 4
        }
      ]
    },
    {
      "name": "Object_3",
      "primitives": [
        {
          "attributes": {
            "NORMAL": 13,
            "POSITION": 12,
            "TEXCOORD_0": 14
          },
          "indices": 15,
          "material": 1,
          "mode": 4
        }
      ]
    },
    {
      "name": "Object_4",
      "primitives": [
        {
          "attributes": {
            "NORMAL": 17,
            "POSITION": 16,
            "TEXCOORD_0": 18
          },
          "indices": 19,
          "material": 1,
          "mode": 4
        }
      ]
    },
    {
      "name": "Object_5",
      "primitives": [
        {
          "attributes": {
            "NORMAL": 21,
            "POSITION": 20,
            "TEXCOORD_0": 22
          },
          "indices": 23,
          "material": 1,
          "mode": 4
        }
      ]
    },
    {
      "name": "Object_6",
      "primitives": [
        {
          "attributes": {
            "NORMAL": 25,
            "POSITION": 24,
            "TEXCOORD_0": 26
          },
          "indices": 27,
          "material": 1,
          "mode": 4
        }
      ]
    },
    {
      "name": "Object_7",
      "primitives": [
        {
          "attributes": {
            "NORMAL": 29,
            "POSITION": 28,
            "TEXCOORD_0": 30
          },
          "indices": 31,
          "material": 1,
          "mode": 4
        }
      ]
    },
    {
      "name": "Object_8",
      "primitives": [
        {
          "attributes": {
            "NORMAL": 33,
            "POSITION": 32,
            "TEXCOORD_0": 34
          },
          "indices": 35,
          "material": 1,
          "mode": 4
        }
      ]
    },
    {
      "name": "Object_9",
      "primitives": [
        {
          "attributes": {
            "NORMAL": 37,
            "POSITION": 36,
            "TEXCOORD_0": 38
          },
          "indices": 39,
          "material": 1,
          "mode": 4
        }
      ]
    },
    {
      "name": "Object_10",
      "primitives": [
        {
          "attributes": {
            "NORMAL": 41,
            "POSITION": 40,
            "TEXCOORD_0": 42
          },
          "indices": 43,
          "material": 1,
          "mode": 4
        }
      ]
    }
  ],
  "nodes": [
    {
      "children": [
        1
      ],
      "matrix": [
        1.0,
        0.0,
        0.0,
        0.0,
        0.0,
        2.220446049250313e-16,
        -1.0,
        0.0,
        0.0,
        1.0,
        2.220446049250313e-16,
        0.0,
        0.0,
        0.0,
        0.0,
        1.0
      ],
      "name": "Sketchfab_model"
    },
    {
      "children": [
        2,
        3,
        4,
        5,
        6,
        7,
        8,
        9,
        10,
        11,
        12
      ],
      "name": "Paimio_sanatorium_SF.obj.cleaner.materialmerger.gles"
    },
    {
      "mesh": 0,
      "name": "Object_2"
    },
    {
      "mesh": 1,
      "name": "Object_3"
    },
    {
      "mesh": 2,
      "name": "Object_4"
    },
    {
      "mesh": 3,
      "name": "Object_5"
    },
    {
      "mesh": 4,
      "name": "Object_6"
    },
    {
      "mesh": 5,
      "name": "Object_7"
    },
    {
      "mesh": 6,
      "name": "Object_8"
    },
    {
      "mesh": 7,
      "name": "Object_9"
    },
    {
      "mesh": 8,
      "name": "Object_10"
    },
    {
      "mesh": 9,
      "name": "Object_11"
    },
    {
      "mesh": 10,
      "name": "Object_12"
    }
  ],
  "samplers": [
    {
      "magFilter": 9729,
      "minFilter": 9987,
      "wrapS": 10497,
      "wrapT": 10497
    }
  ],
  "scene": 0,
  "scenes": [
    {
      "name": "Sketchfab_Scene",
      "nodes": [
        0
      ]
    }
  ],
  "textures": [
    {
      "sampler": 0,
      "source": 0
    }
  ]
}
